<?xml version="1.0" standalone="no"?>
<!DOCTYPE svg PUBLIC "-//W3C//DTD SVG 20010904//EN"
 "http://www.w3.org/TR/2001/REC-SVG-20010904/DTD/svg10.dtd">
<svg version="1.0" xmlns="http://www.w3.org/2000/svg"
 width="639.000000pt" height="639.000000pt" viewBox="0 0 639.000000 639.000000"
 preserveAspectRatio="xMidYMid meet">
<metadata>
Created by potrace 1.11, written by Peter Selinger 2001-2013
</metadata>
<g transform="translate(0.000000,639.000000) scale(0.100000,-0.100000)"
fill="#000000" stroke="none">
<path d="M1 3195 l-1 -3195 3195 0 3195 0 0 1760 0 1760 -200 0 c-189 0 -202
1 -223 21 -21 19 -22 29 -27 260 l-6 240 -43 38 c-31 28 -57 41 -87 46 -48 7
-64 25 -64 74 l0 31 325 0 325 0 0 1080 0 1080 -3194 0 -3194 0 -1 -3195z
m2469 640 l0 -395 -272 0 c-150 0 -323 3 -385 7 l-111 6 -7 41 c-4 23 -10 134
-13 248 -5 145 -11 211 -19 220 -9 8 -13 48 -13 125 0 95 -2 113 -15 113 -9 0
-18 -6 -21 -14 -12 -31 -67 -36 -410 -36 -337 0 -344 0 -365 21 -21 21 -25 21
-158 10 -198 -16 -621 -14 -643 3 -53 40 -107 38 1620 43 l812 3 0 -395z
m3234 389 c25 -10 19 -22 -23 -49 l-38 -26 -361 3 -360 3 -6 -35 c-3 -19 -6
-173 -6 -341 0 -268 -2 -308 -16 -320 -12 -10 -97 -13 -402 -13 l-387 -1 -3
393 -2 392 794 0 c437 0 801 -3 810 -6z"/>
</g>
</svg>
